<mxfile host="app.diagrams.net" modified="2023-10-23T17:12:22.604Z" agent="Mozilla/5.0 (Windows NT 10.0; Win64; x64) AppleWebKit/537.36 (KHTML, like Gecko) Chrome/116.0.5845.888 YaBrowser/23.9.2.888 Yowser/2.5 Safari/537.36" version="22.0.6" etag="CLIWz06808f9r3ZJE90t" type="github">
  <diagram name="Страница — 1" id="Bm1ziuyVDBh9U3hghKox">
    <mxGraphModel>
      <root>
        <mxCell id="0" />
        <mxCell id="1" parent="0" />
      </root>
    </mxGraphModel>
  </diagram>
</mxfile>
